<?xml version="1.0" encoding="UTF-8"?>
<!DOCTYPE svg PUBLIC "-//W3C//DTD SVG 1.1//EN" "http://www.w3.org/Graphics/SVG/1.1/DTD/svg11.dtd">
<svg xmlns="http://www.w3.org/2000/svg" version="1.1" width="386px" height="420px" style="shape-rendering:geometricPrecision; text-rendering:geometricPrecision; image-rendering:optimizeQuality; fill-rule:evenodd; clip-rule:evenodd" xmlns:xlink="http://www.w3.org/1999/xlink">
<g><path style="opacity:1" fill="#f3f3f5" d="M -0.5,-0.5 C 128.167,-0.5 256.833,-0.5 385.5,-0.5C 385.5,139.5 385.5,279.5 385.5,419.5C 256.833,419.5 128.167,419.5 -0.5,419.5C -0.5,279.5 -0.5,139.5 -0.5,-0.5 Z"/></g>
<g><path style="opacity:1" fill="#131314" d="M 131.5,98.5 C 133.199,98.3398 134.866,98.5065 136.5,99C 137.081,99.8926 137.415,100.893 137.5,102C 135.911,105.204 134.078,108.037 132,110.5C 140.382,120.548 148.382,130.881 156,141.5C 156.667,162.167 156.667,182.833 156,203.5C 153.667,206.167 151.333,206.167 149,203.5C 148.667,183.167 148.333,162.833 148,142.5C 140.333,132.833 132.667,123.167 125,113.5C 123.627,111.305 123.294,108.971 124,106.5C 126.705,103.964 129.205,101.297 131.5,98.5 Z"/></g>
<g><path style="opacity:1" fill="#0a0a0a" d="M 187.5,139.5 C 194.798,132.703 201.965,125.703 209,118.5C 209.699,116.926 209.365,115.593 208,114.5C 201.5,121 195,127.5 188.5,134C 187.552,134.483 186.552,134.649 185.5,134.5C 183.086,133.594 182.253,131.928 183,129.5C 187.214,125.622 191.048,121.455 194.5,117C 193.464,115.099 192.298,113.265 191,111.5C 190.333,109.833 190.333,108.167 191,106.5C 193.833,103.667 196.667,100.833 199.5,98C 202.353,97.3414 204.02,98.508 204.5,101.5C 203.272,104.238 201.438,106.571 199,108.5C 198.5,110.667 199.333,111.5 201.5,111C 203.385,108.778 205.551,106.944 208,105.5C 211.954,108.451 215.621,111.784 219,115.5C 219.667,116.5 219.667,117.5 219,118.5C 216.317,121.016 213.817,123.683 211.5,126.5C 215.192,131.025 218.692,135.692 222,140.5C 222.827,165.739 222.661,190.906 221.5,216C 219.299,216.825 217.466,216.325 216,214.5C 215.667,190.833 215.333,167.167 215,143.5C 212.385,139.217 209.385,135.217 206,131.5C 198.333,139.167 190.667,146.833 183,154.5C 182.667,165.833 182.333,177.167 182,188.5C 179.667,191.167 177.333,191.167 175,188.5C 174.333,176.5 174.333,164.5 175,152.5C 179.37,148.298 183.537,143.964 187.5,139.5 Z"/></g>
<g><path style="opacity:1" fill="#0c0c0c" d="M 285.5,118.5 C 273.167,130.167 261.167,142.167 249.5,154.5C 248.669,165.993 248.169,177.659 248,189.5C 246,190.833 244,190.833 242,189.5C 241.333,176.833 241.333,164.167 242,151.5C 253.681,139.986 265.181,128.319 276.5,116.5C 276.167,115.5 275.5,114.833 274.5,114.5C 268.348,121.152 262.015,127.652 255.5,134C 253.5,134.667 251.5,134.667 249.5,134C 248.446,132.612 248.28,131.112 249,129.5C 256.833,121.667 264.667,113.833 272.5,106C 273.833,105.333 275.167,105.333 276.5,106C 279.333,108.833 282.167,111.667 285,114.5C 285.49,115.793 285.657,117.127 285.5,118.5 Z"/></g>
<g><path style="opacity:1" fill="#0d0d0d" d="M 163.5,116.5 C 174.37,115.868 179.204,120.868 178,131.5C 173.011,139.13 166.677,140.463 159,135.5C 154.598,127.644 156.098,121.31 163.5,116.5 Z"/></g>
<g><path style="opacity:1" fill="#0b0b0b" d="M 230.5,116.5 C 241.375,116.537 245.875,121.871 244,132.5C 240.723,138.109 235.89,139.942 229.5,138C 227,136.833 225.167,135 224,132.5C 223.333,129.167 223.333,125.833 224,122.5C 226.063,120.266 228.229,118.266 230.5,116.5 Z"/></g>
<g><path style="opacity:1" fill="#d8d8da" d="M 187.5,139.5 C 187.047,138.542 186.381,137.708 185.5,137C 186.5,136.667 187.5,136.333 188.5,136C 187.263,135.768 186.263,135.268 185.5,134.5C 186.552,134.649 187.552,134.483 188.5,134C 195,127.5 201.5,121 208,114.5C 209.365,115.593 209.699,116.926 209,118.5C 201.965,125.703 194.798,132.703 187.5,139.5 Z"/></g>
<g><path style="opacity:1" fill="#e1e1e3" d="M 164.5,124.5 C 169.006,123.527 171.172,125.194 171,129.5C 167.507,132.502 165.007,131.835 163.5,127.5C 163.685,126.416 164.018,125.416 164.5,124.5 Z"/></g>
<g><path style="opacity:1" fill="#e6e6e8" d="M 231.5,124.5 C 236.895,123.555 238.561,125.555 236.5,130.5C 230.74,132.212 229.074,130.212 231.5,124.5 Z"/></g>
<g><path style="opacity:1" fill="#cacacc" d="M 285.5,118.5 C 275.048,130.468 263.715,142.301 251.5,154C 250.906,154.464 250.239,154.631 249.5,154.5C 261.167,142.167 273.167,130.167 285.5,118.5 Z"/></g>
<g><path style="opacity:1" fill="#0c0c0c" d="M 195.5,219.5 C 194.957,219.56 194.624,219.893 194.5,220.5C 197.086,221.48 199.753,221.813 202.5,221.5C 214.142,222.742 225.809,223.242 237.5,223C 255.927,208.374 274.427,193.874 293,179.5C 294.261,179.759 295.261,180.426 296,181.5C 296.667,190.167 296.667,198.833 296,207.5C 277.404,224.884 258.904,242.384 240.5,260C 211.833,260.333 183.167,260.667 154.5,261C 138.5,281.667 122.5,302.333 106.5,323C 102.494,323.987 100.661,322.487 101,318.5C 117.863,297.27 134.363,275.77 150.5,254C 179.167,253.667 207.833,253.333 236.5,253C 254,236.833 271.5,220.667 289,204.5C 289.667,200.167 289.667,195.833 289,191.5C 272.5,204.667 256,217.833 239.5,231C 204.536,228.479 169.536,226.479 134.5,225C 130.385,226.223 126.718,228.223 123.5,231C 111.284,242.22 98.7839,253.053 86,263.5C 82.9277,262.553 81.9277,260.553 83,257.5C 95.5,246.333 108,235.167 120.5,224C 128.883,218.095 138.217,215.429 148.5,216C 164.167,206.333 179.833,196.667 195.5,187C 203.039,182.959 209.206,184.459 214,191.5C 215.186,196.368 214.186,200.702 211,204.5C 205.965,209.703 200.798,214.703 195.5,219.5 Z"/></g>
<g><path style="opacity:1" fill="#e9e9eb" d="M 200.5,192.5 C 205.327,191.848 207.16,193.848 206,198.5C 199.221,205.279 192.387,212.113 185.5,219C 177.088,219.787 168.755,219.287 160.5,217.5C 173.898,209.142 187.231,200.808 200.5,192.5 Z"/></g>
<g><path style="opacity:1" fill="#0c0c0c" d="M 242.5,194.5 C 244.467,194.261 246.301,194.594 248,195.5C 248.667,199.5 248.667,203.5 248,207.5C 246,210.167 244,210.167 242,207.5C 241.232,203.08 241.398,198.747 242.5,194.5 Z"/></g>
<g><path style="opacity:1" fill="#888889" d="M 195.5,219.5 C 197.833,220.167 200.167,220.833 202.5,221.5C 199.753,221.813 197.086,221.48 194.5,220.5C 194.624,219.893 194.957,219.56 195.5,219.5 Z"/></g>
<g><path style="opacity:1" fill="#101010" d="M 73.5,265.5 C 77.4866,265.652 78.9866,267.652 78,271.5C 73.9282,275.45 69.7616,279.283 65.5,283C 61.5126,283.339 60.0126,281.506 61,277.5C 65.0621,273.269 69.2288,269.269 73.5,265.5 Z"/></g>
</svg>
