<?xml version="1.0" encoding="UTF-8"?>
<!DOCTYPE svg PUBLIC "-//W3C//DTD SVG 1.1//EN" "http://www.w3.org/Graphics/SVG/1.1/DTD/svg11.dtd">
<svg xmlns="http://www.w3.org/2000/svg" version="1.1" width="413px" height="396px" style="shape-rendering:geometricPrecision; text-rendering:geometricPrecision; image-rendering:optimizeQuality; fill-rule:evenodd; clip-rule:evenodd" xmlns:xlink="http://www.w3.org/1999/xlink">
<g><path style="opacity:1" fill="#f3f3f5" d="M -0.5,-0.5 C 137.167,-0.5 274.833,-0.5 412.5,-0.5C 412.5,131.5 412.5,263.5 412.5,395.5C 274.833,395.5 137.167,395.5 -0.5,395.5C -0.5,263.5 -0.5,131.5 -0.5,-0.5 Z"/></g>
<g><path style="opacity:1" fill="#0a0a0b" d="M 194.5,87.5 C 197.85,87.335 201.183,87.5017 204.5,88C 207.167,90 207.167,92 204.5,94C 199.487,94.6692 194.487,95.0025 189.5,95C 187.789,93.8668 187.289,92.3668 188,90.5C 190.045,89.0735 192.212,88.0735 194.5,87.5 Z"/></g>
<g><path style="opacity:1" fill="#121213" d="M 219.5,87.5 C 224.526,88.1154 229.526,88.9487 234.5,90C 237.361,94.3501 236.028,96.5168 230.5,96.5C 227.151,96.1084 223.817,95.6084 220.5,95C 216.88,93.0059 216.547,90.5059 219.5,87.5 Z"/></g>
<g><path style="opacity:1" fill="#101010" d="M 171.5,92.5 C 175.487,92.6518 176.987,94.6518 176,98.5C 171.103,101.378 165.937,103.211 160.5,104C 159.424,102.274 159.257,100.441 160,98.5C 163.751,96.2046 167.585,94.2046 171.5,92.5 Z"/></g>
<g><path style="opacity:1" fill="#121212" d="M 248.5,94.5 C 253.793,95.4319 258.793,97.2653 263.5,100C 265.267,103.424 264.267,105.59 260.5,106.5C 256.913,104.913 253.246,103.413 249.5,102C 246.034,99.8064 245.7,97.3064 248.5,94.5 Z"/></g>
<g><path style="opacity:1" fill="#0c0c0c" d="M 143.5,106.5 C 148.895,105.555 150.561,107.555 148.5,112.5C 145.36,114.473 142.36,116.64 139.5,119C 134.9,120.583 133.066,119.083 134,114.5C 137.358,111.969 140.524,109.302 143.5,106.5 Z"/></g>
<g><path style="opacity:1" fill="#111111" d="M 275.5,108.5 C 280.615,110.426 285.115,113.426 289,117.5C 289.667,118.833 289.667,120.167 289,121.5C 286.936,122.591 284.769,122.758 282.5,122C 280.792,119.957 278.792,118.29 276.5,117C 273.074,114.405 272.741,111.571 275.5,108.5 Z"/></g>
<g><path style="opacity:1" fill="#0c0c0d" d="M 200.5,120.5 C 223.613,117.961 238.78,127.628 246,149.5C 247.36,179.807 232.86,194.64 202.5,194C 180.562,187.31 170.728,172.477 173,149.5C 177.256,135.079 186.423,125.413 200.5,120.5 Z"/></g>
<g><path style="opacity:1" fill="#131313" d="M 121.5,125.5 C 123.665,125.116 125.332,125.783 126.5,127.5C 122.929,130.309 121.262,133.975 121.5,138.5C 118.428,138.817 115.428,138.484 112.5,137.5C 115.524,133.482 118.524,129.482 121.5,125.5 Z"/></g>
<g><path style="opacity:1" fill="#f1f1f3" d="M 203.5,127.5 C 227.49,126.991 239.323,138.657 239,162.5C 233.471,181.352 220.971,189.186 201.5,186C 186.202,180.038 179.035,168.871 180,152.5C 182.905,139.431 190.739,131.097 203.5,127.5 Z"/></g>
<g><path style="opacity:1" fill="#0c0c0c" d="M 306.5,137.5 C 304.052,138.473 301.385,138.806 298.5,138.5C 297.812,135.98 296.812,133.48 295.5,131C 296.93,129.56 298.597,129.226 300.5,130C 302.629,132.439 304.629,134.939 306.5,137.5 Z"/></g>
<g><path style="opacity:1" fill="#070707" d="M 129.5,182.5 C 129.5,178.833 129.5,175.167 129.5,171.5C 117.5,171.5 105.5,171.5 93.5,171.5C 92.8826,171.389 92.3826,171.056 92,170.5C 91.3333,162.833 91.3333,155.167 92,147.5C 92.3826,146.944 92.8826,146.611 93.5,146.5C 105.5,146.5 117.5,146.5 129.5,146.5C 129.5,142.833 129.5,139.167 129.5,135.5C 131.011,133.559 133.011,133.059 135.5,134C 144.535,142.037 153.202,150.37 161.5,159C 161.22,160.395 160.553,161.562 159.5,162.5C 151.351,169.481 143.351,176.648 135.5,184C 133.011,184.941 131.011,184.441 129.5,182.5 Z"/></g>
<g><path style="opacity:1" fill="#070707" d="M 289.5,135.5 C 289.5,139.167 289.5,142.833 289.5,146.5C 301.5,146.5 313.5,146.5 325.5,146.5C 326.117,146.611 326.617,146.944 327,147.5C 327.667,155.167 327.667,162.833 327,170.5C 326.617,171.056 326.117,171.389 325.5,171.5C 313.5,171.5 301.5,171.5 289.5,171.5C 289.5,175.167 289.5,178.833 289.5,182.5C 287.989,184.441 285.989,184.941 283.5,184C 275.649,176.648 267.649,169.481 259.5,162.5C 258.447,161.562 257.78,160.395 257.5,159C 265.798,150.37 274.465,142.037 283.5,134C 285.989,133.059 287.989,133.559 289.5,135.5 Z"/></g>
<g><path style="opacity:1" fill="#929294" d="M 306.5,137.5 C 307.043,137.56 307.376,137.893 307.5,138.5C 304.355,139.803 301.355,139.803 298.5,138.5C 301.385,138.806 304.052,138.473 306.5,137.5 Z"/></g>
<g><path style="opacity:1" fill="#b9b9ba" d="M 129.5,135.5 C 129.5,139.167 129.5,142.833 129.5,146.5C 117.5,146.5 105.5,146.5 93.5,146.5C 104.988,145.505 116.655,145.172 128.5,145.5C 128.187,141.958 128.521,138.625 129.5,135.5 Z"/></g>
<g><path style="opacity:1" fill="#b9b9ba" d="M 289.5,135.5 C 290.479,138.625 290.813,141.958 290.5,145.5C 302.345,145.172 314.012,145.505 325.5,146.5C 313.5,146.5 301.5,146.5 289.5,146.5C 289.5,142.833 289.5,139.167 289.5,135.5 Z"/></g>
<g><path style="opacity:1" fill="#ededee" d="M 136.5,145.5 C 142.108,149.439 147.108,154.106 151.5,159.5C 146.859,163.805 142.193,168.139 137.5,172.5C 136.971,169.743 135.971,167.243 134.5,165C 122.505,164.5 110.505,164.333 98.5,164.5C 98.5,160.833 98.5,157.167 98.5,153.5C 110.851,153.832 123.185,153.499 135.5,152.5C 136.374,150.253 136.708,147.92 136.5,145.5 Z"/></g>
<g><path style="opacity:1" fill="#ededef" d="M 281.5,145.5 C 282.266,147.684 282.933,150.018 283.5,152.5C 295.815,153.499 308.149,153.832 320.5,153.5C 320.5,157.167 320.5,160.833 320.5,164.5C 308.495,164.333 296.495,164.5 284.5,165C 283.029,167.243 282.029,169.743 281.5,172.5C 276.807,168.139 272.141,163.805 267.5,159.5C 271.881,154.452 276.548,149.785 281.5,145.5 Z"/></g>
<g><path style="opacity:1" fill="#7d7d7e" d="M 93.5,171.5 C 105.5,171.5 117.5,171.5 129.5,171.5C 129.5,175.167 129.5,178.833 129.5,182.5C 128.521,179.375 128.187,176.042 128.5,172.5C 116.655,172.828 104.988,172.495 93.5,171.5 Z"/></g>
<g><path style="opacity:1" fill="#7d7d7e" d="M 325.5,171.5 C 314.012,172.495 302.345,172.828 290.5,172.5C 290.813,176.042 290.479,179.375 289.5,182.5C 289.5,178.833 289.5,175.167 289.5,171.5C 301.5,171.5 313.5,171.5 325.5,171.5 Z"/></g>
<g><path style="opacity:1" fill="#0c0c0d" d="M 94.5,179.5 C 96.4672,179.261 98.3005,179.594 100,180.5C 99.923,184.805 99.7563,189.138 99.5,193.5C 97.1667,193.5 94.8333,193.5 92.5,193.5C 92.0328,188.6 92.6994,183.933 94.5,179.5 Z"/></g>
<g><path style="opacity:1" fill="#0f0f0f" d="M 320.5,183.5 C 324.717,183.215 326.883,185.215 327,189.5C 327.667,193.167 327.667,196.833 327,200.5C 325,203.167 323,203.167 321,200.5C 319.893,194.771 319.726,189.104 320.5,183.5 Z"/></g>
<g><path style="opacity:1" fill="#151515" d="M 173.5,188.5 C 175.199,188.34 176.866,188.506 178.5,189C 180.208,191.043 182.208,192.71 184.5,194C 167.517,196.649 156.35,206.149 151,222.5C 150.5,241.497 150.333,260.497 150.5,279.5C 189.833,279.5 229.167,279.5 268.5,279.5C 268.667,260.497 268.5,241.497 268,222.5C 262.661,206.162 251.495,196.662 234.5,194C 237.054,191.937 239.72,190.103 242.5,188.5C 260.375,194.21 271.542,206.21 276,224.5C 276.667,244.5 276.667,264.5 276,284.5C 275.167,285.333 274.333,286.167 273.5,287C 230.833,287.667 188.167,287.667 145.5,287C 144.667,286.167 143.833,285.333 143,284.5C 142.045,263.116 142.379,241.782 144,220.5C 149.068,205.309 158.902,194.642 173.5,188.5 Z"/></g>
<g><path style="opacity:1" fill="#0f0f0f" d="M 93.5,208.5 C 95.3904,208.297 96.8904,208.963 98,210.5C 99.2179,215.455 99.5512,220.455 99,225.5C 97,228.167 95,228.167 93,225.5C 90.9932,219.618 91.1599,213.951 93.5,208.5 Z"/></g>
<g><path style="opacity:1" fill="#111111" d="M 321.5,213.5 C 324.864,212.873 326.864,214.206 327.5,217.5C 326.474,221.796 325.641,226.129 325,230.5C 320.65,233.361 318.483,232.028 318.5,226.5C 318.677,221.866 319.677,217.533 321.5,213.5 Z"/></g>
<g><path style="opacity:1" fill="#0b0b0b" d="M 98.5,238.5 C 100.722,238.178 102.556,238.845 104,240.5C 105.6,244.467 107.1,248.467 108.5,252.5C 108.392,253.442 108.059,254.275 107.5,255C 105.559,255.743 103.726,255.576 102,254.5C 98.8076,249.467 97.6409,244.134 98.5,238.5 Z"/></g>
<g><path style="opacity:1" fill="#0f0f0f" d="M 314.5,243.5 C 316.199,243.34 317.866,243.506 319.5,244C 320.059,244.725 320.392,245.558 320.5,246.5C 318.67,250.828 316.836,255.162 315,259.5C 311.576,261.267 309.41,260.267 308.5,256.5C 310.254,251.995 312.254,247.662 314.5,243.5 Z"/></g>
<g><path style="opacity:1" fill="#101010" d="M 111.5,265.5 C 113.288,265.215 114.955,265.548 116.5,266.5C 119.376,270.206 122.043,274.039 124.5,278C 123.553,281.072 121.553,282.072 118.5,281C 114.991,277.504 112.324,273.504 110.5,269C 110.648,267.744 110.982,266.577 111.5,265.5 Z"/></g>
<g><path style="opacity:1" fill="#0f0f0f" d="M 300.5,269.5 C 305.068,269.083 306.568,271.083 305,275.5C 302.5,278.667 300,281.833 297.5,285C 293,285.833 291.167,284 292,279.5C 295.078,276.321 297.912,272.988 300.5,269.5 Z"/></g>
<g><path style="opacity:1" fill="#131313" d="M 131.5,287.5 C 132.873,287.343 134.207,287.51 135.5,288C 138.369,291.204 141.535,294.037 145,296.5C 145.987,300.506 144.487,302.339 140.5,302C 137,299.167 133.5,296.333 130,293.5C 129.252,291.16 129.752,289.16 131.5,287.5 Z"/></g>
<g><path style="opacity:1" fill="#0f0f0f" d="M 279.5,291.5 C 284.123,290.408 285.956,292.075 285,296.5C 281.833,299 278.667,301.5 275.5,304C 270.115,305.45 268.448,303.617 270.5,298.5C 273.75,296.388 276.75,294.055 279.5,291.5 Z"/></g>
<g><path style="opacity:1" fill="#101010" d="M 156.5,304.5 C 161.25,306.029 165.916,307.863 170.5,310C 173.388,313.172 172.722,315.339 168.5,316.5C 163.941,315.221 159.608,313.388 155.5,311C 154.144,308.586 154.478,306.419 156.5,304.5 Z"/></g>
<g><path style="opacity:1" fill="#0e0e0f" d="M 254.5,306.5 C 258.487,306.652 259.987,308.652 259,312.5C 254.56,315.533 249.727,317.366 244.5,318C 242.675,316.534 242.175,314.701 243,312.5C 246.816,310.343 250.649,308.343 254.5,306.5 Z"/></g>
<g><path style="opacity:1" fill="#131313" d="M 184.5,314.5 C 189.149,315.065 193.816,315.565 198.5,316C 202.881,320.189 202.048,322.689 196,323.5C 192.08,323.049 188.247,322.216 184.5,321C 181.939,318.844 181.939,316.677 184.5,314.5 Z"/></g>
<g><path style="opacity:1" fill="#111112" d="M 220.5,315.5 C 223.518,315.335 226.518,315.502 229.5,316C 232.461,319.763 231.461,322.096 226.5,323C 222.129,323.828 217.795,323.661 213.5,322.5C 212.572,321.232 212.405,319.899 213,318.5C 215.378,317.033 217.878,316.033 220.5,315.5 Z"/></g>
</svg>
