<?xml version="1.0" encoding="UTF-8"?>
<!DOCTYPE svg PUBLIC "-//W3C//DTD SVG 1.1//EN" "http://www.w3.org/Graphics/SVG/1.1/DTD/svg11.dtd">
<svg xmlns="http://www.w3.org/2000/svg" version="1.1" width="422px" height="415px" style="shape-rendering:geometricPrecision; text-rendering:geometricPrecision; image-rendering:optimizeQuality; fill-rule:evenodd; clip-rule:evenodd" xmlns:xlink="http://www.w3.org/1999/xlink">
<g><path style="opacity:1" fill="#f3f3f5" d="M -0.5,-0.5 C 140.167,-0.5 280.833,-0.5 421.5,-0.5C 421.5,137.833 421.5,276.167 421.5,414.5C 280.833,414.5 140.167,414.5 -0.5,414.5C -0.5,276.167 -0.5,137.833 -0.5,-0.5 Z"/></g>
<g><path style="opacity:1" fill="#090909" d="M 201.5,104.5 C 246.468,101.567 280.968,118.9 305,156.5C 325.494,197.37 322.494,236.37 296,273.5C 271.243,302.449 239.743,315.283 201.5,312C 149.763,302.263 119.596,271.429 111,219.5C 108.666,169.653 129.833,133.819 174.5,112C 183.426,108.79 192.426,106.29 201.5,104.5 Z"/></g>
<g><path style="opacity:1" fill="#f2f2f4" d="M 203.5,113.5 C 253.028,111.822 286.862,133.822 305,179.5C 316.466,227.032 301.966,264.199 261.5,291C 215.123,313.191 174.623,305.358 140,267.5C 112.81,228.124 112.81,188.79 140,149.5C 156.671,129.581 177.838,117.581 203.5,113.5 Z"/></g>
<g><path style="opacity:1" fill="#0d0d0d" d="M 159.5,187.5 C 162.325,187.081 164.491,188.081 166,190.5C 165.696,197.353 168.863,201.353 175.5,202.5C 182.448,201.643 185.948,197.643 186,190.5C 190.501,186.084 193.668,186.917 195.5,193C 192.996,207.086 184.663,213.086 170.5,211C 158.931,206.355 155.264,198.521 159.5,187.5 Z"/></g>
<g><path style="opacity:1" fill="#0d0d0d" d="M 236.5,187.5 C 239.325,187.081 241.491,188.081 243,190.5C 243.071,197.346 246.404,201.346 253,202.5C 259.954,201.544 263.287,197.544 263,190.5C 267.501,186.084 270.668,186.917 272.5,193C 269.996,207.086 261.663,213.086 247.5,211C 239.237,207.81 234.57,201.81 233.5,193C 233.863,190.808 234.863,188.974 236.5,187.5 Z"/></g>
<g><path style="opacity:1" fill="#090909" d="M 159.5,235.5 C 164.267,236.088 167.434,238.755 169,243.5C 192.932,268.884 219.765,272.384 249.5,254C 255.576,248.595 260.909,242.595 265.5,236C 269.229,235.217 271.563,236.717 272.5,240.5C 259.413,262.887 239.746,274.221 213.5,274.5C 189.11,273.557 170.276,262.89 157,242.5C 156.333,241.167 156.333,239.833 157,238.5C 158.045,237.627 158.878,236.627 159.5,235.5 Z"/></g>
</svg>
